<?xml version="1.0" encoding="UTF-8"?>
<svg xmlns="http://www.w3.org/2000/svg" xmlns:xlink="http://www.w3.org/1999/xlink" width="50px" height="50px" viewBox="0 0 50 50" version="1.1">
<g id="surface1">
<path style=" stroke:none;fill-rule:nonzero;fill:rgb(0%,73.72549%,94.901961%);fill-opacity:1;" d="M 1.03125 32.460938 C 0.621094 32.207031 0.328125 31.871094 0.152344 31.445312 C 0.0195312 31.128906 0 30.25 0 24.835938 L 0 18.59375 L 0.242188 18.175781 C 0.40625 17.898438 0.628906 17.691406 0.910156 17.554688 L 1.335938 17.351562 L 45.089844 17.351562 L 45.425781 17.640625 C 45.835938 18.003906 46.519531 18.992188 47.425781 20.535156 C 48.222656 21.894531 50 25.183594 50 25.304688 C 50 25.347656 49.617188 26.035156 49.152344 26.832031 C 47.328125 29.949219 46.234375 31.605469 45.566406 32.273438 L 45.195312 32.644531 L 23.257812 32.644531 C 2.03125 32.644531 1.3125 32.636719 1.03125 32.460938 Z M 45.21875 31.027344 C 45.964844 30.050781 48.726562 25.511719 48.726562 25.265625 C 48.726562 25.007812 46.074219 20.320312 45.175781 18.992188 L 44.796875 18.425781 L 23.078125 18.453125 C 1.703125 18.476562 1.355469 18.480469 1.21875 18.667969 C 1.101562 18.828125 1.078125 19.824219 1.078125 24.8125 C 1.078125 28.183594 1.117188 30.871094 1.167969 31.003906 C 1.21875 31.132812 1.332031 31.3125 1.421875 31.402344 C 1.570312 31.554688 3.183594 31.5625 23.214844 31.542969 L 44.84375 31.515625 Z M 3.027344 29.988281 C 2.886719 29.933594 2.722656 29.78125 2.660156 29.644531 C 2.582031 29.472656 2.550781 28.09375 2.550781 24.996094 L 2.550781 20.597656 L 2.785156 20.320312 L 3.023438 20.046875 L 8.742188 20.015625 C 11.886719 20 14.605469 20.015625 14.785156 20.046875 C 14.964844 20.078125 15.195312 20.191406 15.300781 20.296875 C 15.484375 20.480469 15.488281 20.660156 15.488281 25.078125 C 15.488281 29.625 15.488281 29.675781 15.285156 29.859375 C 15.085938 30.039062 14.828125 30.046875 9.179688 30.0625 C 5.574219 30.074219 3.183594 30.042969 3.027344 29.988281 Z M 14.117188 25.773438 C 14.117188 23.523438 14.09375 22.941406 13.996094 23 C 13.929688 23.042969 12.902344 23.832031 11.714844 24.753906 C 9.132812 26.765625 9.089844 26.796875 8.824219 26.710938 C 8.710938 26.675781 7.726562 25.957031 6.636719 25.109375 C 5.546875 24.265625 4.492188 23.445312 4.289062 23.292969 L 3.921875 23.011719 L 3.921875 28.625 L 14.117188 28.625 Z M 11.714844 23.03125 L 13.675781 21.515625 L 11.296875 21.492188 C 9.992188 21.476562 7.867188 21.476562 6.582031 21.492188 L 4.242188 21.515625 L 6.601562 23.351562 L 8.960938 25.183594 L 9.359375 24.863281 C 9.578125 24.6875 10.636719 23.863281 11.714844 23.03125 Z M 17.265625 29.988281 C 16.761719 29.785156 16.769531 29.863281 16.769531 25.125 C 16.769531 22.015625 16.796875 20.621094 16.875 20.449219 C 16.9375 20.3125 17.121094 20.15625 17.28125 20.101562 C 17.703125 19.953125 28.78125 19.957031 29.203125 20.105469 C 29.375 20.164062 29.558594 20.292969 29.609375 20.394531 C 29.667969 20.503906 29.707031 22.34375 29.707031 25.121094 C 29.707031 29.625 29.707031 29.675781 29.5 29.859375 C 29.300781 30.039062 29.042969 30.046875 23.398438 30.066406 C 19.746094 30.078125 17.410156 30.046875 17.265625 29.988281 Z M 28.332031 25.773438 C 28.332031 23.519531 28.308594 22.941406 28.210938 23 C 28.144531 23.042969 27.09375 23.847656 25.882812 24.789062 C 23.367188 26.746094 23.242188 26.824219 22.921875 26.65625 C 22.796875 26.589844 21.726562 25.785156 20.539062 24.867188 C 19.351562 23.953125 18.328125 23.15625 18.257812 23.105469 C 18.164062 23.03125 18.136719 23.589844 18.136719 25.816406 L 18.136719 28.625 L 28.332031 28.625 Z M 26.214844 22.804688 L 27.875 21.515625 L 25.503906 21.492188 C 24.203125 21.476562 22.085938 21.476562 20.796875 21.492188 L 18.457031 21.515625 L 23.160156 25.1875 L 23.859375 24.640625 C 24.242188 24.335938 25.304688 23.511719 26.214844 22.804688 Z M 31.421875 29.984375 C 30.972656 29.734375 30.980469 29.800781 30.984375 25.050781 C 30.984375 20.183594 30.972656 20.300781 31.507812 20.097656 C 31.890625 19.953125 43 19.960938 43.417969 20.105469 C 43.589844 20.164062 43.773438 20.292969 43.824219 20.394531 C 43.882812 20.503906 43.921875 22.328125 43.921875 25.078125 C 43.921875 29.367188 43.914062 29.59375 43.734375 29.8125 L 43.546875 30.046875 L 37.582031 30.070312 C 33.367188 30.085938 31.558594 30.058594 31.421875 29.984375 Z M 42.550781 25.773438 C 42.550781 23.523438 42.523438 22.941406 42.425781 23 C 42.359375 23.042969 41.3125 23.847656 40.097656 24.789062 C 37.585938 26.742188 37.457031 26.824219 37.136719 26.65625 C 37.011719 26.589844 35.941406 25.785156 34.753906 24.867188 C 33.570312 23.953125 32.542969 23.15625 32.476562 23.105469 C 32.378906 23.03125 32.351562 23.589844 32.351562 25.816406 L 32.351562 28.625 L 42.550781 28.625 Z M 39.722656 21.488281 C 38.417969 21.476562 36.296875 21.476562 35.003906 21.488281 L 32.65625 21.515625 L 35.011719 23.347656 L 37.367188 25.175781 L 39.730469 23.347656 L 42.089844 21.515625 Z M 39.722656 21.488281 "/>
</g>
</svg>
